<svg width="24" height="25" viewBox="0 0 24 25" fill="none" xmlns="http://www.w3.org/2000/svg">
<path d="M4.00005 20.5V7.6L2.05005 3.35L3.85005 2.5L6.20005 7.55H17.8L20.15 2.5L21.95 3.35L20 7.6V20.5H4.00005ZM10 13.5H14C14.2834 13.5 14.5209 13.4042 14.7125 13.2125C14.9042 13.0208 15 12.7833 15 12.5C15 12.2167 14.9042 11.9792 14.7125 11.7875C14.5209 11.5958 14.2834 11.5 14 11.5H10C9.71672 11.5 9.47922 11.5958 9.28755 11.7875C9.09588 11.9792 9.00005 12.2167 9.00005 12.5C9.00005 12.7833 9.09588 13.0208 9.28755 13.2125C9.47922 13.4042 9.71672 13.5 10 13.5ZM6.00005 18.5H18V9.55H6.00005V18.5Z" fill="#9B9B9B"/>
</svg>
